<?xml version="1.0" encoding="utf-8"?>
<!-- Generator: Adobe Illustrator 21.0.0, SVG Export Plug-In . SVG Version: 6.00 Build 0)  -->
<svg version="1.1" id="图层_1" xmlns="http://www.w3.org/2000/svg" xmlns:xlink="http://www.w3.org/1999/xlink" x="0px" y="0px"
	 viewBox="0 0 200 200" style="enable-background:new 0 0 200 200;" xml:space="preserve">
<path d="M100,2C45.7,2,2,45.7,2,100s43.7,98,98,98s98-43.7,98-98S154.3,2,100,2z M136.8,108.2h-28.6v28.6c0,4.5-3.7,8.2-8.2,8.2
	s-8.2-3.7-8.2-8.2v-28.6H63.3c-4.5,0-8.2-3.7-8.2-8.2s3.7-8.2,8.2-8.2h28.6V63.3c0-4.5,3.7-8.2,8.2-8.2s8.2,3.7,8.2,8.2v28.6h28.6
	c4.5,0,8.2,3.7,8.2,8.2S141.2,108.2,136.8,108.2L136.8,108.2z"/>
</svg>
