<?xml version="1.0" encoding="utf-8"?>
<!-- Generator: Adobe Illustrator 21.0.0, SVG Export Plug-In . SVG Version: 6.00 Build 0)  -->
<svg version="1.1" id="图层_1" xmlns="http://www.w3.org/2000/svg" xmlns:xlink="http://www.w3.org/1999/xlink" x="0px" y="0px"
	 viewBox="0 0 200 200" style="enable-background:new 0 0 200 200;" xml:space="preserve">
<path d="M100,1C45.3,1,1,45.3,1,100c0,54.7,44.3,99,99,99c54.7,0,99-44.3,99-99C199,45.3,154.7,1,100,1z M89.6,145.3
	c0,2.1-0.7,3.8-2.2,5.3c-1.5,1.4-3.3,2.2-5.3,2.2l-30,0c-2.1,0-3.8-0.7-5.3-2.2c-1.4-1.4-2.2-3.2-2.2-5.3v-30.1
	c0-2.1,0.7-3.8,2.2-5.3c1.4-1.4,3.2-2.2,5.3-2.2h30c2.1,0,3.9,0.7,5.3,2.2c1.5,1.4,2.2,3.2,2.2,5.3L89.6,145.3z M89.6,85.2
	c0,2.1-0.7,3.9-2.2,5.3c-1.5,1.5-3.3,2.2-5.3,2.2l-30,0c-2.1,0-3.8-0.7-5.3-2.2c-1.4-1.5-2.2-3.3-2.2-5.3v-30c0-2.1,0.7-3.8,2.2-5.3
	c1.4-1.4,3.2-2.2,5.3-2.2h30c2.1,0,3.9,0.7,5.3,2.2c1.5,1.4,2.2,3.2,2.2,5.3L89.6,85.2z M149.5,145.3c0,2.1-0.7,3.8-2.2,5.3
	c-1.4,1.4-3.2,2.2-5.3,2.2l-30,0c-2.1,0-3.9-0.7-5.3-2.2c-1.5-1.4-2.2-3.2-2.2-5.3l0-30.1c0-2.1,0.7-3.8,2.2-5.3
	c1.5-1.4,3.3-2.2,5.3-2.2h30c2.1,0,3.8,0.7,5.3,2.2c1.4,1.4,2.2,3.2,2.2,5.3L149.5,145.3z M153.8,74.2l-18.7,18.7
	c-1.3,1.3-2.9,2-4.7,2s-3.3-0.7-4.7-2L107,74.2c-1.3-1.3-1.9-2.8-1.9-4.6c0-1.8,0.6-3.4,1.9-4.7l18.7-18.7c1.3-1.3,2.9-1.9,4.7-1.9
	s3.3,0.6,4.7,1.9l18.7,18.7c1.3,1.3,2,2.9,2,4.7C155.8,71.4,155.2,72.9,153.8,74.2z"/>
</svg>
