<?xml version="1.0" encoding="utf-8"?>
<!-- Generator: Adobe Illustrator 21.0.0, SVG Export Plug-In . SVG Version: 6.00 Build 0)  -->
<svg version="1.1" id="图层_1" xmlns="http://www.w3.org/2000/svg" xmlns:xlink="http://www.w3.org/1999/xlink" x="0px" y="0px"
	 viewBox="0 0 200 200" style="enable-background:new 0 0 200 200;" xml:space="preserve">
<path d="M74,14.8L15.4,73.4c-3.1,3.1-8.1,3.1-11.2,0s-3.1-8.1,0-11.2L62.9,3.6c3.1-3.1,8.1-3.1,11.2,0C77.1,6.7,77.1,11.6,74,14.8z"
	/>
<path d="M68.4,198.8c-4.3,0-7.9-3.6-7.9-7.9V9.2c0-4.3,3.6-7.9,7.9-7.9s7.9,3.6,7.9,7.9v181.7C76.3,195.2,72.7,198.7,68.4,198.8z
	 M126,185.2l58.7-58.7c3.1-3.1,8.1-3.1,11.2,0c3.1,3.1,3.1,8.1,0,11.2l-58.7,58.7c-3.1,3.1-8.1,3.1-11.2,0
	C122.9,193.3,122.9,188.4,126,185.2z"/>
<path d="M131.6,1.3c4.3,0,7.9,3.6,7.9,7.9v181.7c0,4.3-3.6,7.9-7.9,7.9c-4.3,0-7.9-3.6-7.9-7.9V9.2C123.7,4.8,127.3,1.3,131.6,1.3z"
	/>
</svg>
