<?xml version="1.0" encoding="utf-8"?>
<!-- Generator: Adobe Illustrator 21.0.0, SVG Export Plug-In . SVG Version: 6.00 Build 0)  -->
<svg version="1.1" id="图层_1" xmlns="http://www.w3.org/2000/svg" xmlns:xlink="http://www.w3.org/1999/xlink" x="0px" y="0px"
	 viewBox="0 0 200 200" style="enable-background:new 0 0 200 200;" xml:space="preserve">
<path d="M100.4,1c-54.7,0-99,44.3-99,99s44.3,99,99,99s99-44.3,99-99S155.1,1,100.4,1z M112.7,155.7c0,7.3-5.9,13.2-13.2,13.2h-1.7
	c-7.3,0-13.2-5.9-13.2-13.2c0-7.3,5.9-13.2,13.2-13.2h1.7C106.8,142.5,112.7,148.4,112.7,155.7z M124.2,106.4
	c-10.3,7.3-15.1,14.3-14.3,21.2v4.6h-23v-6.3c-0.4-11.9,4.6-21.2,14.9-28.1c9.6-7.3,14.2-14.2,13.8-20.7c-0.8-8-5.4-12.4-13.8-13.2
	c-7.5,0-13.1,3.7-16.5,11c-2.6,5.5-8.6,8.5-14.6,7.4c-8.8-1.7-13.4-11.4-9.3-19.3c8-15.3,22.8-22.6,44.5-22
	c23.7,1.5,36.7,12.2,39,32.1C145.6,86.1,138.7,97.2,124.2,106.4L124.2,106.4z"/>
</svg>
