<?xml version="1.0" encoding="utf-8"?>
<!-- Generator: Adobe Illustrator 21.0.0, SVG Export Plug-In . SVG Version: 6.00 Build 0)  -->
<svg version="1.1" id="图层_1" xmlns="http://www.w3.org/2000/svg" xmlns:xlink="http://www.w3.org/1999/xlink" x="0px" y="0px"
	 viewBox="0 0 200 200" style="enable-background:new 0 0 200 200;" xml:space="preserve">
<path d="M100,1C45.3,1,1,45.3,1,100s44.3,99,99,99s99-44.3,99-99S154.7,1,100,1z M136.9,135c-4.5,4.5-11.7,4.5-16.2,0l-18.8-18.8
	L83.1,135c-4.5,4.5-11.7,4.5-16.2,0c-4.5-4.5-4.5-11.7,0-16.2L85.7,100L66.9,81.2c-4.5-4.5-4.5-11.7,0-16.2c4.5-4.5,11.7-4.5,16.2,0
	l18.8,18.8L120.7,65c4.5-4.5,11.7-4.5,16.2,0c4.5,4.5,4.5,11.7,0,16.2L118.1,100l18.8,18.8C141.4,123.3,141.4,130.5,136.9,135z"/>
</svg>
