<?xml version="1.0" encoding="utf-8"?>
<!-- Generator: Adobe Illustrator 21.0.0, SVG Export Plug-In . SVG Version: 6.00 Build 0)  -->
<svg version="1.1" id="图层_1" xmlns="http://www.w3.org/2000/svg" xmlns:xlink="http://www.w3.org/1999/xlink" x="0px" y="0px"
	 viewBox="0 0 200 200" style="enable-background:new 0 0 200 200;" xml:space="preserve">
<path d="M86,22.1c0,10.9,8.9,19.8,19.8,19.8s19.8-8.9,19.8-19.8s-8.9-19.8-19.8-19.8S86,11.1,86,22.1z"/>
<path d="M47.4,62.9l-25.9,1.3C15,64,6.6,62,6.3,55.9C6,51.6,8,45.4,16.5,43c34.5-7,55.1-6.5,68.4-3
	c20,5.8,34.2,16.1,40.7,25.5c13.4,17.7,5.3,46,1.5,53.8c-3.8,7.7-10.6,12.4-18.4,7.8c-5-2.9-5.3-9.7-1.1-22.1
	c2.9-10.1,4.1-15.6-0.4-21.2c-1.6-2-5.5-0.6-7.3,2.7l-20.6,34.8l-38.1,71.3c-6.6,8.8-12.6,7.5-18.1,5.5c-4.6-2.1-8.6-8.2-3.9-17
	c19-32.5,30.3-49.1,32.5-53.9c2.2-4.9-2.1-9.7-6.8-2.8l-22.6,38.4c-5.3,8.1-12.6,8.6-16.6,4.6C2.7,164.2,0,156.8,4.1,148l40.3-78.3
	L47.4,62.9z M78.4,69.2c-3.6-2-7.2-2-11-0.1c-3.8,1.9-7.1,5.4-9.9,10.4c-2.6,4.7-3.7,8.8-3.2,12.6c0.5,3.8,2.6,6.8,6.4,8.8
	c3,1.7,6.2,2.1,9.3,1.3c3.2-0.8,5.6-2.8,7.3-5.9c1.7-3,2.1-6,1.4-8.9c-0.7-2.9-2.6-5.2-5.6-6.9c-1.5-0.9-3.1-1.4-4.6-1.4
	c-1.6-0.1-3.2,0.2-4.8,1L63.7,80l0.2-0.4c1.6-2.8,3.4-4.9,5.7-6.1c2.3-1.3,4.5-1.4,6.5-0.3c2.9,1.6,3.9,4,3,7.2l4.9,2.7
	C86.3,77.2,84.4,72.5,78.4,69.2L78.4,69.2z"/>
<path d="M66.8,83.2c-2.2,0-3.8,0.6-5,2c-1.2,1.3-1.8,3.1-1.8,5.3c0,2.2,0.6,4,1.9,5.2c1.3,1.3,2.9,1.9,4.9,1.9
	c2.1,0,3.7-0.7,4.9-2.1c1.3-1.4,1.9-3.1,1.9-5.3c0-2.2-0.6-3.9-1.8-5.1C70.6,83.9,68.9,83.2,66.8,83.2L66.8,83.2z"/>
<path d="M165.2,136.4c1.5,4,2.5,8.9,2.9,14.2c4,0.1,8,0.6,11.9,1.4c0.2-1,0.4-2,0.7-2.8c0.8-2.3,2.1-4.4,3.7-5.9
	c1-1,2.3-1.8,3.6-2.2c-1-1.3-2-2.5-3.1-3.6c-3.2-3.2-7-5.8-11.3-7.6c-4.4-1.8-9-2.8-13.7-2.8C162.1,129.4,163.8,132.5,165.2,136.4
	L165.2,136.4z M190.5,145c-2.3,0.2-4.5,2.5-5.6,5.6c-0.2,0.8-0.4,1.7-0.6,2.5c3.7,1.1,7.3,2.6,10.7,4.5c-0.4-3.1-1.2-6.1-2.5-8.9
	c-0.6-1.3-1.2-2.6-1.9-3.8H190.5L190.5,145z M142.9,141.8c3.4,1.9,5.8,4.8,7,8.6c0.1,0.4,0.2,0.8,0.4,1.2c3.6-0.6,7.2-0.9,10.8-1
	c0.9-0.1,1.8-0.1,2.7-0.1c-0.5-4.7-1.4-9-2.7-12.6c-1.8-4.9-4.2-8.5-7-10.2c-0.1-0.1-0.1-0.1-0.2-0.1c-8.2,1.3-15.6,5.6-21,11.9
	C136.8,139.5,140.1,140.3,142.9,141.8z M195.3,163c-3.3-2.3-7-4-10.8-5.3c0.2,0.9,0.4,1.9,0.8,2.9c1.5,4.2,4.4,8.3,8.6,12.2
	C194.8,169.7,195.3,166.3,195.3,163C195.3,163,195.3,163,195.3,163L195.3,163z M164.1,155.9l-0.1-1c-4.4,0.1-8.9,0.4-13.4,1.1
	c0,0.9-0.1,1.9-0.2,2.8c-0.4,3-1.5,6-3.1,9c-3.3,6.3-8.9,11.7-16,15.9c1,1.3,2.1,2.7,3.4,3.9c3.2,3.2,7,5.8,11.3,7.6
	c3,1.3,6.2,2.1,9.4,2.5C161.4,186.1,164.7,170.5,164.1,155.9z M145.9,152.4c-0.1-0.2-0.1-0.4-0.2-0.6c-1.8-5.8-7.5-8.6-15.6-7.7
	h-0.5c-2.6,4.2-4.2,8.9-4.9,13.7C132.1,155.4,139.2,153.5,145.9,152.4z M192,177.1c-5.4-4.8-9-9.8-10.8-15c-0.7-1.8-1-3.7-1.2-5.6
	c-3.7-0.9-7.6-1.3-11.5-1.5l0.1,0.8c0.2,7.3-0.4,15-1.8,22.4c-1.4,7.2-3.6,13.9-6.4,19.9c9.3-0.1,18.1-3.8,24.7-10.4
	c3-3,5.5-6.5,7.2-10.4C192.1,177.2,192.1,177.1,192,177.1z M143.6,165.8c1.7-3.1,2.5-6.2,2.7-9.1c-7.5,1.3-14.8,3.4-21.2,5.5
	c-0.2,0.1-0.4,0.1-0.7,0.1v0.2c0,6.1,1.6,12.2,4.6,17.5C137.4,175.3,141.5,169.7,143.6,165.8z"/>
</svg>
