<?xml version="1.0" standalone="no"?><!DOCTYPE svg PUBLIC "-//W3C//DTD SVG 1.1//EN" "http://www.w3.org/Graphics/SVG/1.1/DTD/svg11.dtd"><svg t="1570873435483" class="icon" viewBox="0 0 1024 1024" version="1.1" xmlns="http://www.w3.org/2000/svg" p-id="3093" xmlns:xlink="http://www.w3.org/1999/xlink" width="200" height="200"><defs><style type="text/css"></style></defs><path d="M511.80199 64.075341c-247.731174 0-448.606181 200.845331-448.606181 448.606181 0 247.741407 200.875007 448.607204 448.606181 448.607204 247.77006 0 448.606181-200.865797 448.606181-448.607204C960.407148 264.921695 759.571027 64.075341 511.80199 64.075341zM452.488093 292.207132c0-0.237407 0-0.590448 0-1.057075 0-13.571087 4.305049-25.980721 12.989849-37.219693 8.647961-11.228739 22.13309-17.561981 40.380686-18.961864l0-0.704035c20.609387-0.933255 36.152385 4.799306 46.704718 17.20894 10.514471 12.409634 15.809057 26.332738 15.809057 41.789779 0 0.466628 0 0.818645 0 1.047866 0 0.237407 0 0.599657 0 1.046842 0 13.59053-4.495384 25.980721-13.370519 37.227879-8.876158 11.237949-22.475897 17.552771-40.723493 18.952654-20.114107 1.409093-35.46677-4.075829-45.99966-16.495696-10.532891-12.400425-15.790638-26.332738-15.790638-41.780569C452.488093 292.797579 452.488093 292.445562 452.488093 292.207132zM555.381531 773.261329c-10.552334 11.028171-23.543206 17.009396-39.009456 17.904789-16.381086 0.456395-30.780027-5.123694-43.161009-16.838503-12.418844-11.713786-18.628266-25.732058-18.628266-42.151006l0-0.666172 1.409093-272.52179c0-15.914458 5.714142-29.247114 17.219173-40.028669 11.428284-10.751878 25.142633-16.142655 41.066301-16.142655 14.97097 0 28.114314 5.037736 39.352263 15.09479 11.236925 10.076496 16.83748 22.828938 16.83748 38.275745l0.685615 276.69381C571.15375 748.842173 565.934888 762.28944 555.381531 773.261329z" p-id="3094"></path></svg>