<?xml version="1.0" encoding="utf-8"?>
<!-- Generator: Adobe Illustrator 21.0.0, SVG Export Plug-In . SVG Version: 6.00 Build 0)  -->
<svg version="1.1" id="图层_1" xmlns="http://www.w3.org/2000/svg" xmlns:xlink="http://www.w3.org/1999/xlink" x="0px" y="0px"
	 viewBox="0 0 200 200" style="enable-background:new 0 0 200 200;" xml:space="preserve">
<path d="M105.2,44.7c1.5,4,2.5,8.9,2.9,14.2c4,0.1,8,0.6,11.9,1.4c0.2-1,0.4-2,0.7-2.8c0.8-2.3,2.1-4.4,3.7-5.9
	c1-1,2.3-1.8,3.6-2.2c-1-1.3-2-2.5-3.1-3.6c-3.2-3.2-7-5.8-11.3-7.6c-4.4-1.8-9-2.8-13.7-2.8C102.1,37.6,103.8,40.8,105.2,44.7
	L105.2,44.7z M130.5,53.2c-2.3,0.2-4.5,2.5-5.6,5.6c-0.2,0.8-0.4,1.7-0.6,2.5c3.7,1.1,7.3,2.6,10.7,4.5c-0.4-3.1-1.2-6.1-2.5-8.9
	c-0.6-1.3-1.2-2.6-1.9-3.8H130.5L130.5,53.2z M82.9,50.1c3.4,1.9,5.8,4.8,7,8.6c0.1,0.4,0.2,0.8,0.4,1.2c3.6-0.6,7.2-0.9,10.8-1
	c0.9-0.1,1.8-0.1,2.7-0.1c-0.5-4.7-1.4-9-2.7-12.6c-1.8-4.9-4.2-8.5-7-10.2c-0.1-0.1-0.1-0.1-0.2-0.1c-8.2,1.3-15.6,5.6-21,11.9
	C76.8,47.7,80.1,48.5,82.9,50.1z M135.3,71.2c-3.3-2.3-7-4-10.8-5.3c0.2,0.9,0.4,1.9,0.8,2.9c1.5,4.2,4.4,8.3,8.6,12.2
	C134.8,77.9,135.3,74.6,135.3,71.2C135.3,71.3,135.3,71.2,135.3,71.2L135.3,71.2z M104.1,64.1l-0.1-1c-4.4,0.1-8.9,0.4-13.4,1.1
	c0,0.9-0.1,1.9-0.2,2.8c-0.4,3-1.5,6-3.1,9c-3.3,6.3-8.9,11.7-16,15.9c1,1.3,2.1,2.7,3.4,3.9c3.2,3.2,7,5.8,11.3,7.6
	c3,1.3,6.2,2.1,9.4,2.5C101.4,94.3,104.7,78.7,104.1,64.1z M85.9,60.6c-0.1-0.2-0.1-0.4-0.2-0.6c-1.8-5.8-7.5-8.6-15.6-7.7h-0.5
	c-2.6,4.2-4.2,8.9-4.9,13.7C72.1,63.6,79.2,61.8,85.9,60.6z M132,85.3c-5.4-4.8-9-9.8-10.8-15c-0.7-1.8-1-3.7-1.2-5.6
	c-3.7-0.9-7.6-1.3-11.5-1.5l0.1,0.8c0.2,7.3-0.4,15-1.8,22.4c-1.4,7.2-3.6,13.9-6.4,19.9c9.3-0.1,18.1-3.8,24.7-10.4
	c3-3,5.5-6.5,7.2-10.4C132.1,85.4,132.1,85.4,132,85.3z M83.6,74c1.7-3.1,2.5-6.2,2.7-9.1c-7.5,1.3-14.8,3.4-21.2,5.5
	c-0.2,0.1-0.4,0.1-0.7,0.1v0.2c0,6.1,1.6,12.2,4.6,17.5C77.4,83.5,81.5,77.9,83.6,74z"/>
<path d="M99.9,197.9c-4.5-5.4-71.7-86.2-71.7-124.2C28.2,34.1,60.4,2,99.9,2s71.7,32.2,71.7,71.7
	C171.6,111.7,104.4,192.5,99.9,197.9z M99.9,13C68,13,42,39,42,70.9s26,57.9,57.9,57.9s57.9-26,57.9-57.9S131.8,13,99.9,13z"/>
</svg>
