<?xml version="1.0" standalone="no"?><!DOCTYPE svg PUBLIC "-//W3C//DTD SVG 1.1//EN" "http://www.w3.org/Graphics/SVG/1.1/DTD/svg11.dtd"><svg t="1570767194768" class="icon" viewBox="0 0 1024 1024" version="1.1" xmlns="http://www.w3.org/2000/svg" p-id="4389" xmlns:xlink="http://www.w3.org/1999/xlink" width="200" height="200"><defs><style type="text/css"></style></defs><path d="M304.4 151.7h416.4v115.8h50.8V151.4c0-28.7-22.9-52.5-51.6-52.5H304c-28.7 0-52.4 23.8-52.4 52.5v116.1h52.8V151.7z m0 0M876 305.3H148c-28.7 0-52.8 22.6-52.8 51.3v260c0 28.7 24.1 52.3 52.8 52.3h103.6v207.7c0 28.7 23.7 52.3 52.4 52.3h416c28.7 0 51.6-23.6 51.6-52.3V668.8H876c28.7 0 52-23.6 52-52.3v-260c0-28.7-23.2-51.2-52-51.2zM720.8 876H304.4V512.4h416.4V876zM824 460.5c-28.7 0-52-23.3-52-52s23.3-52 52-52 52 23.3 52 52c0 28.8-23.3 52-52 52z m0 0" fill="" p-id="4390"></path><path d="M355.2 565.2h209.2V616H355.2zM355.2 668.8H668v52.8H355.2zM355.2 772.4H668v52.8H355.2z" fill="" p-id="4391"></path></svg>