<?xml version="1.0" encoding="utf-8"?>
<!-- Generator: Adobe Illustrator 21.0.0, SVG Export Plug-In . SVG Version: 6.00 Build 0)  -->
<svg version="1.1" id="图层_1" xmlns="http://www.w3.org/2000/svg" xmlns:xlink="http://www.w3.org/1999/xlink" x="0px" y="0px"
	 viewBox="0 0 200 200" style="enable-background:new 0 0 200 200;" xml:space="preserve">
<path d="M184.1,104.8L95.3,16c-1.7-1.8-4.3-3-7-3H22.7c-5.4,0-9.7,4.3-9.7,9.7v65.6c0,0.5,0.1,1.1,0.2,1.7v0.2
	c0.1,0.4,0.3,0.9,0.3,1.3c0.1,0.2,0.1,0.3,0.2,0.5l0.5,1c0.1,0.2,0.2,0.4,0.3,0.6l1,1.3l0.2,0.2l88.9,88.9c3.8,3.8,10,3.8,13.7,0
	l65.6-65.6C187.9,114.8,187.9,108.6,184.1,104.8L184.1,104.8z M44.3,56.3c-7,0-12.7-5.7-12.7-12.7c0-7,5.7-12.7,12.7-12.7
	c7,0,12.7,5.7,12.7,12.7C56.9,50.7,51.3,56.3,44.3,56.3z"/>
</svg>
