<?xml version="1.0" encoding="utf-8"?>
<!-- Generator: Adobe Illustrator 21.0.0, SVG Export Plug-In . SVG Version: 6.00 Build 0)  -->
<svg version="1.1" id="图层_1" xmlns="http://www.w3.org/2000/svg" xmlns:xlink="http://www.w3.org/1999/xlink" x="0px" y="0px"
	 viewBox="0 0 200 200" style="enable-background:new 0 0 200 200;" xml:space="preserve">
<path d="M168.6,30.5C149.4,11.9,123.9,1.7,96.8,1.7h0C69.6,1.7,44.1,11.9,25,30.5c-0.1,0.1-0.4,0.4-0.8,0.7L27.3,20
	c1-3.4-1.2-7-4.7-7.9c-3.6-0.9-7.2,1.1-8.2,4.6L4.9,51.2c-0.6,2.2,0,4.6,1.7,6.2c1.3,1.2,3,1.9,4.7,1.9c0.6,0,1.2-0.1,1.7-0.2
	l35.6-9.2c3.6-0.9,5.7-4.5,4.7-7.9c-1-3.4-4.6-5.5-8.2-4.6l-11.6,3c0.3-0.3,0.6-0.5,0.7-0.7c16.7-16.1,38.8-25,62.4-25
	c23.6,0,45.7,8.9,62.4,25c34.4,33.3,34.4,87.5,0,120.8c-34.4,33.3-90.4,33.3-124.7,0c-8.7-8.4-15.4-18.3-19.8-29.4
	c-1.3-3.3-5.2-5-8.6-3.7c-3.4,1.3-5.1,5-3.8,8.4c5.1,12.7,12.8,24.1,22.8,33.8c19.2,18.6,44.7,28.8,71.8,28.8
	c27.1,0,52.6-10.2,71.8-28.8c19.2-18.6,29.7-43.3,29.7-69.5C198.3,73.7,187.8,49,168.6,30.5z"/>
</svg>
